<svg width="780" height="200" viewBox="0 0 780 200" fill="none" xmlns="http://www.w3.org/2000/svg">
    <style>
        path{
        //animation: surgir 3s infinite alternate;
        }
        @keyframes surgir{
        0%{
        opacity:0;
        }5%{
        opacity:1;
        }
        }
        .sobre{
        animation: translate 3s steps(1) infinite alternate;
        }
        .barra{
        animation: piscar .5s linear infinite ,translate 3s steps(1) infinite alternate;
        }
        @keyframes translate {

        0% {
        transform: translateX(0);
        }
        10% {
        transform: translateX(30px);
        }
        12% {
        transform: translateX(64px);
        }
        14% {
        transform: translateX(94px);
        }
        16% {
        transform: translateX(120px);
        }
        18% {
        transform: translateX(150px);
        }
        20% {
        transform: translateX(175px);
        }
        22% {
        transform: translateX(212px);
        }
        24% {
        transform: translateX(242px);
        }
        26% {
        transform: translateX(270px);
        }
        28% {
        transform: translateX(298px);
        }
        30% {
        transform: translateX(330px);
        }
        32% {
        transform: translateX(360px);
        }
        34% {
        transform: translateX(390px);
        }
        36% {
        transform: translateX(420px);
        }
        38% {
        transform: translateX(450px);
        }
        40% {
        transform: translateX(480px);
        }
        42% {
        transform: translateX(510px);
        }
        44% {
        transform: translateX(540px);
        }
        46% {
        transform: translateX(570px);
        }
        48% {
        transform: translateX(600px);
        }
        50% {
        transform: translateX(630px);
        }
        52% {
        transform: translateX(660px);
        }
        54% {
        transform: translateX(690px);
        }
        56% {
        transform: translateX(713px);
        }
        58% {
        transform: translateX(713px);

        }

        }
        @keyframes piscar{
        from{opacity:0;}to{opacity:.8;}
        }

    </style>
    <rect width="780" height="200" fill="#282828" class="container" />
    <path class="texto"
        d="M17 101.25V75H24.5V86.25H35.75V75H43.25V101.25H35.75V90H24.5V101.25H17ZM47 101.25V75H73.25V78.75H54.5V86.25H69.5V90H54.5V97.5H73.25V101.25H47ZM80.75 101.25V75H88.25V97.5H103.25V101.25H80.75ZM110.75 101.25V75H118.25V97.5H133.25V101.25H110.75ZM140.75 101.25V97.5H137V78.75H140.75V75H159.5V78.75H163.25V97.5H159.5V101.25H140.75ZM144.5 97.5H155.75V78.75H144.5V97.5ZM174.5 93.75V75H185.75V86.25H182V93.75H174.5ZM174.5 101.25V97.5H182V101.25H174.5ZM230.75 101.25V97.5H238.25V78.75H230.75V75H253.25V78.75H245.75V97.5H253.25V101.25H230.75ZM264.5 86.25V82.5H268.25V75H275.75V82.5H272V86.25H264.5ZM287 101.25V75H294.5V78.75H298.25V82.5H302V78.75H305.75V75H313.25V101.25H305.75V86.25H302V93.75H298.25V86.25H294.5V101.25H287ZM347 101.25V82.5H350.75V78.75H354.5V75H365.75V78.75H369.5V82.5H373.25V101.25H365.75V93.75H354.5V101.25H347ZM354.5 90H365.75V82.5H362V78.75H358.25V82.5H354.5V90ZM380.75 101.25V97.5H377V75H384.5V97.5H395.75V75H403.25V97.5H399.5V101.25H380.75ZM407 101.25V75H429.5V78.75H433.25V90H425.75V93.75H429.5V97.5H433.25V101.25H422V97.5H418.25V93.75H414.5V101.25H407ZM414.5 90H422V86.25H425.75V78.75H414.5V90ZM440.75 101.25V97.5H437V75H444.5V97.5H455.75V75H463.25V97.5H459.5V101.25H440.75ZM470.75 101.25V97.5H467V93.75H474.5V97.5H485.75V90H470.75V86.25H467V78.75H470.75V75H489.5V78.75H493.25V82.5H485.75V78.75H474.5V86.25H489.5V90H493.25V97.5H489.5V101.25H470.75ZM530.75 101.25V97.5H527V93.75H534.5V97.5H545.75V90H530.75V86.25H527V78.75H530.75V75H549.5V78.75H553.25V82.5H545.75V78.75H534.5V86.25H549.5V90H553.25V97.5H549.5V101.25H530.75ZM560.75 101.25V97.5H557V78.75H560.75V75H579.5V78.75H583.25V97.5H579.5V101.25H560.75ZM564.5 97.5H575.75V78.75H564.5V97.5ZM587 101.25V82.5H590.75V78.75H594.5V75H605.75V78.75H609.5V82.5H613.25V101.25H605.75V93.75H594.5V101.25H587ZM594.5 90H605.75V82.5H602V78.75H598.25V82.5H594.5V90ZM617 101.25V75H639.5V78.75H643.25V90H635.75V93.75H639.5V97.5H643.25V101.25H632V97.5H628.25V93.75H624.5V101.25H617ZM624.5 90H632V86.25H635.75V78.75H624.5V90ZM647 101.25V75H673.25V78.75H654.5V86.25H669.5V90H654.5V97.5H673.25V101.25H647ZM680.75 101.25V97.5H677V93.75H684.5V97.5H695.75V90H680.75V86.25H677V78.75H680.75V75H699.5V78.75H703.25V82.5H695.75V78.75H684.5V86.25H699.5V90H703.25V97.5H699.5V101.25H680.75ZM714.5 93.75V75H725.75V86.25H722V93.75H714.5ZM714.5 101.25V97.5H722V101.25H714.5Z"
        fill="#EFEFEF" />
    <rect x="16" y="56" width="1000" height="69" fill="#282828" class="sobre" />
    <rect x="17" y="102" width="26" height="7" fill="#EFEFEF" class="barra" />
</svg>